<svg xmlns="http://www.w3.org/2000/svg" xmlns:xlink="http://www.w3.org/1999/xlink" width="27" height="27" viewBox="0 0 27 27"><defs><style>.a{fill:none;}.b{clip-path:url(#a);}.c{fill:#404040;}</style><clipPath id="a"><rect class="a" width="27" height="27"/></clipPath></defs><g class="b"><rect class="a" width="27" height="27"/><path class="c" d="M18.667,23H2.334A2.319,2.319,0,0,1,0,20.7L.012,4.6A2.312,2.312,0,0,1,2.334,2.3H3.5V0H5.833V2.3h9.334V0H17.5V2.3h1.166A2.319,2.319,0,0,1,21,4.6V20.7A2.319,2.319,0,0,1,18.667,23ZM2.334,9.2V20.7H18.667V9.2Zm0-4.6V6.9H18.667V4.6Zm14,13.8H10.5V12.649h5.833V18.4Z" transform="translate(3 2)"/></g></svg>