<svg xmlns="http://www.w3.org/2000/svg" width="17.642" height="13.234" viewBox="0 0 17.642 13.234"><defs><style>.a{fill:#fff;}</style></defs><path class="a" d="M17.522,66.922a2.679,2.679,0,0,0-2.55-2.8C13.062,64.034,11.115,64,9.127,64h-.62c-1.985,0-3.936.034-5.845.124A2.685,2.685,0,0,0,.115,66.929c-.086,1.227-.124,2.454-.121,3.681s.034,2.454.117,3.684A2.688,2.688,0,0,0,2.658,77.1c2.006.093,4.063.134,6.155.131s4.146-.034,6.155-.131a2.688,2.688,0,0,0,2.55-2.809c.083-1.23.121-2.457.117-3.687S17.6,68.153,17.522,66.922ZM7.128,73.991V67.219l5,3.384Z" transform="translate(0.006 -64)"/></svg>