<svg xmlns="http://www.w3.org/2000/svg" width="73.619" height="132.353" viewBox="0 0 73.619 132.353"><defs><style>.a{fill:#e94f1b;fill-rule:evenodd;}.b{fill:#fff;font-size:46px;font-family:Roboto-Bold, Roboto;font-weight:700;letter-spacing:0.08em;}</style></defs><g transform="translate(-797.925 -3193)"><g transform="translate(797.925 3193)"><path class="a" d="M1739.187,1190.389a36.893,36.893,0,1,1-36.809,36.867,36.829,36.829,0,0,1,36.809-36.867Zm0,4.027a32.839,32.839,0,1,1-32.787,32.839,32.8,32.8,0,0,1,32.787-32.839Zm0,2.352a30.487,30.487,0,1,1-30.437,30.487,30.462,30.462,0,0,1,30.438-30.487Z" transform="translate(-1702.378 -1131.822)"/><path class="a" d="M1801.8,1073l-23.13,53.39h-20.937l23.182-53.39Z" transform="translate(-1730.118 -1073.001)"/><path class="a" d="M1751.453,1174.774h1.306l-1.046,2.456h-.26a.993.993,0,0,0-.993.995v7.217c-.836.26-1.618.574-2.453.889v-8.105a3.478,3.478,0,0,1,3.446-3.451Zm24.017,1.516a3.5,3.5,0,0,1,.574,1.935v8.105c-.783-.314-1.565-.629-2.4-.889v-6.9h.887Z" transform="translate(-1725.243 -1123.997)"/><path class="a" d="M1708.555,1073l21.666,49.886a4.553,4.553,0,0,1,1.463-.26h1.827l8.718-20.134L1729.438,1073Z" transform="translate(-1705.474 -1073.002)"/></g><text class="b" transform="translate(820.939 3304.065)"><tspan x="0" y="0">1</tspan></text></g></svg>