<svg xmlns="http://www.w3.org/2000/svg" width="34.951" height="34.986" viewBox="0 0 34.951 34.986"><defs><style>.a{fill:#e94f1b;}.b{fill:#fff;stroke:#fff;stroke-width:0.5px;}</style></defs><g transform="translate(0.453 0.311)"><path class="a" d="M12.066,0A11.956,11.956,0,0,1,24.054,12.033,12.145,12.145,0,0,1,11.988,24.145,11.956,11.956,0,0,1,0,12.111,12.145,12.145,0,0,1,12.066,0Z" transform="translate(0.697 12.949) rotate(-30)"/><g transform="translate(-0.071 0.071)"><g transform="translate(0 12.496) rotate(-30)"><path class="b" d="M18.778,1.663a12.385,12.385,0,0,1,5.8,7.6A12.632,12.632,0,0,1,15.69,24.646,12.406,12.406,0,0,1,.417,15.828,12.632,12.632,0,0,1,9.3.44a12.385,12.385,0,0,1,9.477,1.223Zm5.042,7.8A11.63,11.63,0,0,0,9.5,1.2,11.842,11.842,0,0,0,1.171,15.623a11.63,11.63,0,0,0,14.32,8.267A11.842,11.842,0,0,0,23.821,9.463Z" transform="translate(0 0)"/><path class="b" d="M8.9,0h0l.009.029C8.918.062,11.839,11.939.2,15.105L0,14.349C10.9,11.385,8.16.249,8.152.218L8.53.124Z" transform="translate(0.635 0.761)"/><path class="b" d="M9.433.749C9.4.759-1.617,3.939,1.27,14.876l-.754.2C-2.567,3.4,9.182.01,9.215,0Z" transform="translate(14.934 9.223)"/><path class="b" d="M.39,0,21.3,12.072l-.39.678L0,.678Z" transform="translate(1.847 6.168)"/><path class="b" d="M12.845.387.673,21.47,0,21.083,12.172,0Z" transform="translate(6.073 1.808)"/></g></g></g></svg>