<svg xmlns="http://www.w3.org/2000/svg" width="404.453" height="252.878" viewBox="0 0 404.453 252.878"><defs><style>.a,.b,.g{fill:#fff;}.b,.d{stroke:#e94f1b;stroke-miterlimit:10;}.c{fill:#e94f1b;}.c,.g{fill-rule:evenodd;}.d,.h{fill:none;}.d{stroke-width:0.5px;}.e{font-size:20px;font-family:NotoSansTC-Medium, Noto Sans TC;font-weight:500;letter-spacing:0.05em;}.f{font-size:30px;font-family:NotoSansTC-Bold, Noto Sans TC;font-weight:700;letter-spacing:0.1em;}.h{stroke:#fff;stroke-linecap:round;stroke-linejoin:round;stroke-width:5px;}</style></defs><g transform="translate(0 0)"><rect class="a" width="404.453" height="252.878" transform="translate(0 0)"/><rect class="b" width="378.691" height="213.488" transform="translate(13.564 20.095)"/><rect class="b" width="363.911" height="229.467" transform="translate(20.606 12.365)"/><rect class="b" width="371.129" height="221.914" transform="translate(17.438 16.249)"/><path class="c" d="M234.681,213.311c.269-.792.359-2.048,1.151-2.84a6.44,6.44,0,0,1,2.78-1.33,6.613,6.613,0,0,1-2.78-1.33c-.792-.792-.882-2.048-1.151-2.84-.269.792-.359,2.048-1.151,2.84a6.7,6.7,0,0,1-2.78,1.33,6.613,6.613,0,0,1,2.78,1.33c.777.792.882,2.048,1.151,2.84Z" transform="translate(-32.698 11.91)"/><line class="d" x2="147.715" transform="translate(210.78 221.116)"/><line class="d" x2="147.715" transform="translate(45.413 221.116)"/></g><text class="e" transform="translate(58.683 156.123)"><tspan x="0" y="0">符合出賽資格</tspan></text><text class="f" transform="translate(58.683 108.123)"><tspan x="0" y="0">學業成績</tspan></text><g transform="translate(252.289 55.543)"><path class="c" d="M1253.49,622.009l-4.666-4.477a16.667,16.667,0,0,1-5.058-10.773l-.1-6.641a7.807,7.807,0,0,0-7.909-7.575l-5.992.1a16.075,16.075,0,0,1-11.148-4.281l-5.8-5.509a7.691,7.691,0,0,0-10.952.2l-4.764,5.019q-.369.369-.736.738a16.5,16.5,0,0,1-11.347,4.771l-5.648.1a8.014,8.014,0,0,0-3.929,1.182,7.7,7.7,0,0,0-3.684,6.739l.1,5.8a16.493,16.493,0,0,1-3.93,11.068l-5.156,5.363a7.772,7.772,0,0,0,.2,10.97l4.666,4.526a16.663,16.663,0,0,1,5.058,11.117l.148,7.724a7.7,7.7,0,0,0,7.859,7.575l7.171-.148a16.566,16.566,0,0,1,11.2,4.034l4.518,4.379a7.789,7.789,0,0,0,10.953-.2l3.831-4.033a16.782,16.782,0,0,1,11-5.018l7.761-.148a7.71,7.71,0,0,0,7.563-7.919l-.148-7.429a16.531,16.531,0,0,1,4.323-11.216l4.812-5.067a7.818,7.818,0,0,0-.2-10.97Zm-31.679-24.153a34.107,34.107,0,1,1-44.794,17.709,34.208,34.208,0,0,1,44.794-17.709Z" transform="translate(-1160.604 -580.673)"/><path class="g" d="M1248.779,624.548A35,35,0,1,1,1202.83,642.7a35.111,35.111,0,0,1,45.949-18.148Z" transform="translate(-1187.239 -608.194)"/><path class="c" d="M1184.923,749.237l-1.817,3.641a6.667,6.667,0,0,0,1.769.246l7.121-.148a17.777,17.777,0,0,1,6.729,1.082h0a19.468,19.468,0,0,1,5.894,3.394l.1.1,4.52,4.377h0a4.966,4.966,0,0,0,1.327.936l2.651-6.151Zm-3.732,7.429L1168.47,782.1l19.744-2.458,10.413,11.019,10.266-23.909a9.908,9.908,0,0,1-2.555-1.77h-.048l-4.422-4.329a14.6,14.6,0,0,0-4.566-2.656h0a14.1,14.1,0,0,0-5.208-.836l-7.171.148a9.651,9.651,0,0,1-3.732-.64Zm62.819-7.429.687,1.428a5.542,5.542,0,0,1-3.387,1.278h-.05l-7.76.148h-.1l-.294.048Zm2.6,5.265,13.85,27.6-19.744-2.458-10.412,11.019-10.855-25.237a3.731,3.731,0,0,0,.787-.736h0l3.829-4.034h0a15.3,15.3,0,0,1,4.372-3.05,14.956,14.956,0,0,1,5.206-1.278h0l7.663-.148h.048a10.24,10.24,0,0,0,5.256-1.672Zm-28.93,6.789-1.965-4.577,10.706-2.8a18.465,18.465,0,0,0-5.353,3.836h-.05Z" transform="translate(-1164.777 -670.122)"/><path class="c" d="M1243.2,624.215a31.006,31.006,0,1,1-40.7,16.077,31.1,31.1,0,0,1,40.7-16.077Z" transform="translate(-1183.25 -604.196)"/></g><path class="h" d="M11275.259-1133.657l11.492,16.334,18.878-26.043" transform="translate(-10991.037 1235.556)"/></svg>